<svg width="97" height="97" viewBox="0 0 97 97" fill="none" xmlns="http://www.w3.org/2000/svg">
<path d="M26.9575 44.1497C27.6389 44.0869 28.0828 44.2685 28.5712 44.7461L38.0403 54.7219C39.2218 55.9284 43.1945 59.1298 39.8219 60.2486C38.2514 60.5701 35.6914 57.1315 34.6617 56.044L27.1959 48.1605C26.5019 47.4563 25.3532 46.6999 25.6458 45.5494L25.7677 45.1611C25.9978 44.6371 26.4469 44.3537 26.9575 44.1497Z" fill="#43BDD7"/>
<path d="M69.5894 44.1998C70.3738 44.0925 71.2229 44.3923 71.555 45.1686L71.603 45.2869C72.0476 46.4802 70.7321 47.3974 70.045 48.1333L58.8704 59.7107C58.6059 59.9573 58.324 60.1314 57.9797 60.2425C56.6902 60.6093 55.5416 59.1206 56.087 57.9491C56.2902 57.5121 56.6912 57.1511 57.0256 56.8136L67.1701 46.2483C67.8929 45.4755 68.5446 44.5359 69.5894 44.1998Z" fill="#43BDD7"/>
<path d="M55.319 62.9088L55.7404 62.8647C58.4235 62.8705 60.5169 64.8414 61.2377 67.3157C61.4779 68.1402 61.4706 68.8562 61.4726 69.717L61.4764 79.3164C61.4734 82.7488 59.9973 85.2499 56.3278 85.9638C55.7002 86.0859 55.0479 86.0482 54.4115 86.0488L41.8101 86.0458L40.8747 85.9779C37.8533 85.6594 35.6106 82.6893 35.5763 79.7599L35.5741 69.9906C35.5779 66.6747 36.7757 63.7803 40.4103 62.9857C40.9504 62.8676 41.5668 62.9152 42.1194 62.9143L55.319 62.9088Z" fill="#00537A"/>
<path d="M51.8668 69.8647L52.2585 69.8676C53.447 69.9558 54.0707 70.9824 53.9282 72.108C53.8272 72.9078 53.1345 73.3866 52.5622 73.8666L51.0887 75.1159C49.6501 76.3857 48.2357 78.4662 46.1951 78.1798C45.1267 78.0299 44.6463 77.271 44.0435 76.4862C43.3389 75.7626 42.1965 75.2625 42.1603 74.1032C42.1294 73.1088 43.0267 71.8781 44.0993 71.9131C45.2254 71.9496 46.1096 73.0262 46.8253 73.7878C47.2168 73.5803 47.5773 73.1817 47.9062 72.8858L49.5376 71.4568C50.24 70.8454 50.939 70.0983 51.8668 69.8647Z" fill="#16FBFB"/>
<path d="M48.2335 15.996C61.5089 15.4469 72.7657 25.7974 74.557 38.7225C74.6777 39.5934 74.8689 40.7701 74.7109 41.6355L74.6975 41.7034C74.5482 42.5202 73.9268 43.1884 73.0687 43.2437C71.6161 43.3377 71.3729 41.8316 70.8686 40.8068C69.5368 38.1006 66.3811 38.1499 64.5697 40.2798C63.9189 41.045 63.7152 42.0632 63.3276 42.9674C62.6662 44.5103 61.429 45.7583 60.4308 47.0814L56.0372 52.9552C54.2387 55.2989 51.8496 59.8259 48.6956 60.1004C46.7188 60.1426 45.6913 58.9965 44.4935 57.5732C42.7804 55.538 41.3479 53.2872 39.7656 51.1529L36.0271 46.0907C34.8912 44.5161 34.0698 43.6063 33.5372 41.727C32.5347 38.1902 27.8502 37.5517 26.3526 40.7051C26.001 41.4454 25.9376 42.3207 25.2615 42.8592C24.3657 43.5723 23.2753 43.3333 22.616 42.4223C22.2322 41.8919 22.2795 40.5935 22.4003 39.9579L22.6842 37.9618C24.6745 25.6288 35.6415 16.0548 48.2335 15.996Z" fill="#A8E8F9"/>
<path d="M42.2201 38.3848L42.769 38.408C44.8177 38.5765 46.4488 40.7775 46.8492 42.6764C46.9476 43.1431 46.9297 43.627 46.9306 44.1012L46.8876 52.7937L46.6717 55.0868L45.0861 52.6519L39.3916 44.9144C39.0186 44.3795 38.0425 43.1563 37.9904 42.5218C37.8105 40.3336 40.123 38.4989 42.2201 38.3848Z" fill="#FEFEFD"/>
<path d="M54.596 38.383C56.2164 38.3098 57.863 38.9562 58.6609 40.4556L58.699 40.5282C59.6037 42.2366 58.9365 43.3841 57.8975 44.8761L52.3946 52.1496L51.1293 53.8018C50.8753 54.1399 50.651 54.5258 50.3367 54.8109L50.2986 54.5655C50.2033 53.8034 50.26 52.9726 50.2591 52.2019L50.2541 44.3811C50.2541 43.8152 50.195 43.1844 50.295 42.6296C50.6922 40.4277 52.3296 38.6337 54.596 38.383Z" fill="#FEFEFD"/>
</svg>
