<svg width="54" height="54" viewBox="0 0 54 54" fill="none" xmlns="http://www.w3.org/2000/svg">
<rect width="54" height="54" rx="27" fill="#4F71E9"/>
<path fill-rule="evenodd" clip-rule="evenodd" d="M28.1804 43.2044C27.5284 43.8563 26.4715 43.8563 25.8195 43.2044L15.8034 33.1883C15.1515 32.5364 15.1515 31.4794 15.8034 30.8275C16.4553 30.1755 17.5123 30.1755 18.1642 30.8275L25.3306 37.9938L25.3306 11.9756C25.3306 11.0537 26.078 10.3063 26.9999 10.3063C27.9219 10.3063 28.6693 11.0537 28.6693 11.9756L28.6693 37.9938L35.8357 30.8275C36.4876 30.1755 37.5446 30.1755 38.1965 30.8275C38.8484 31.4794 38.8484 32.5364 38.1965 33.1883L28.1804 43.2044Z" fill="white"/>
</svg>
