<svg width="62" height="62" viewBox="0 0 62 62" fill="none" xmlns="http://www.w3.org/2000/svg">
<path d="M10.9179 33.7671C11.21 33.7742 11.5145 33.7712 11.7955 33.8613C14.3009 34.6658 14.0726 36.6941 14.2212 38.8316L14.4847 41.8837C14.5486 42.5794 14.5933 44.0689 14.5018 44.7406C14.2917 46.2835 12.941 47.3972 11.4243 47.5264C9.61675 47.5818 8.1162 46.6638 7.802 44.7893L7.76646 44.4545C7.68368 42.9865 7.7398 41.4899 7.73918 40.0186L7.73955 38.0455C7.74003 37.4869 7.71266 36.9212 7.82728 36.3714C8.13614 34.8897 9.40904 33.8391 10.9179 33.7671Z" fill="#00537A"/>
<path d="M31.883 30.173C29.1568 29.1691 27.3412 26.4164 27.025 23.5828C26.6274 20.0194 31.1303 13.5703 33.4537 11.328C37.4006 7.51895 40.3265 10.9545 42.7197 14.2092L43.9975 16.0952C44.1869 16.3981 44.3914 16.7017 44.557 17.018C45.4773 18.5179 46.3552 20.2958 46.5933 22.054C47.1778 26.3702 43.6472 30.7675 39.2394 30.7642C38.6358 30.7637 38.075 30.6838 37.5239 30.4207C36.4008 29.8846 37.056 30.026 35.9733 30.5112C34.7711 31.05 33.2679 30.7223 32.0803 30.2545C32.0292 30.2344 31.9212 30.2089 31.883 30.173Z" fill="#A8E8F9"/>
<path d="M35.5078 40.6632L37.8378 40.6645C38.5174 40.6627 39.1332 40.6631 39.7762 40.4162C41.0916 39.9113 42.0388 38.5864 42.181 37.201L50.7589 33.3878C51.2006 33.1867 51.6517 32.9416 52.139 32.877C53.9626 32.6354 55.2314 34.8622 54.0371 36.3099C53.6475 36.7822 53.0502 37.0815 52.5349 37.3942L44.9565 42.0761L36.5845 46.5891C34.2565 47.8499 32.3282 49.3067 29.5037 48.7452C28.0827 48.4627 26.6983 47.9701 25.3086 47.5653L18.1339 45.6242C17.6999 45.5122 16.1611 45.2064 15.8536 44.9534C15.8091 44.7329 15.8282 44.4858 15.8273 44.2608L15.7069 40.6888C15.6317 39.7002 15.4503 38.3042 15.5731 37.3224C15.7889 35.598 18.044 34.5696 19.4795 34.1186C22.3542 33.2153 24.5649 33.5243 27.3947 34.0203L32.6651 34.9355C33.5997 35.0602 34.1106 35.0906 35.0827 35.0911L37.7946 35.0926C38.2837 35.0929 38.7955 35.0612 39.2796 35.1275C40.3175 35.2697 40.8829 36.4546 40.7293 37.4028L40.7191 37.4636C40.5739 38.3683 39.7667 39.1011 38.9014 39.3253C38.4359 39.4459 37.8524 39.3891 37.3733 39.3901L34.9835 39.3913L34.859 39.4955C34.9182 39.5397 34.967 39.5907 35.0264 39.6347L35.2686 39.8225C35.3433 39.8841 35.4654 40.0001 35.506 40.087L35.5466 40.1579C35.5912 40.2448 35.5779 40.5755 35.5078 40.6632Z" fill="#00537A"/>
<path d="M35.5078 40.663L28.849 40.6668C28.5651 40.6668 28.2658 40.6853 27.9837 40.6581C27.3323 40.5954 27.421 39.5065 28.0363 39.4006C28.237 39.366 28.4736 39.3886 28.678 39.3883L34.9834 39.3917L34.8589 39.4954C34.9181 39.5395 34.9669 39.5905 35.0263 39.6346L35.2685 39.8223C35.3433 39.8839 35.4654 40 35.5059 40.0869L35.5465 40.1577C35.5912 40.2446 35.5778 40.5753 35.5078 40.663Z" fill="#A8E8F9"/>
</svg>
