<svg width="54" height="54" viewBox="0 0 54 54" fill="none" xmlns="http://www.w3.org/2000/svg">
<rect width="54" height="54" rx="27" fill="#E94F61"/>
<path fill-rule="evenodd" clip-rule="evenodd" d="M25.8195 10.7951C26.4714 10.1432 27.5284 10.1432 28.1803 10.7951L38.1965 20.8112C38.8484 21.4631 38.8484 22.5201 38.1965 23.172C37.5446 23.824 36.4876 23.824 35.8357 23.172L28.6693 16.0057L28.6693 42.0239C28.6693 42.9459 27.9219 43.6932 26.9999 43.6932C26.078 43.6932 25.3306 42.9459 25.3306 42.0239L25.3306 16.0057L18.1642 23.172C17.5123 23.824 16.4553 23.824 15.8034 23.172C15.1515 22.5201 15.1515 21.4631 15.8034 20.8112L25.8195 10.7951Z" fill="white"/>
</svg>
