<svg xmlns="http://www.w3.org/2000/svg" width="32" height="32" viewBox="0 0 32 32" fill="none">
<path fill-rule="evenodd" clip-rule="evenodd" d="M3.20054 29H27.8116C28.13 29 28.4354 28.8728 28.6605 28.6464C28.8857 28.4201 29.0121 28.113 29.0121 27.7929V4.20714C29.0121 3.88699 28.8857 3.57995 28.6605 3.35356C28.4354 3.12718 28.13 3 27.8116 3H3.20054C2.88214 3 2.57677 3.12718 2.35163 3.35356C2.12649 3.57995 2 3.88699 2 4.20714V27.7929C2 28.113 2.12649 28.4201 2.35163 28.6464C2.57677 28.8728 2.88214 29 3.20054 29ZM11.004 8.10714C11.004 7.33789 10.3804 6.71429 9.61118 6.71429H7.89487C7.12562 6.71429 6.50201 7.33789 6.50201 8.10714V8.10714C6.50201 8.8764 7.12562 9.5 7.89487 9.5H9.61118C10.3804 9.5 11.004 8.8764 11.004 8.10714V8.10714ZM24.5101 12.75C24.5101 11.9807 23.8865 11.3571 23.1173 11.3571H7.89487C7.12562 11.3571 6.50201 11.9807 6.50201 12.75V12.75C6.50201 13.5193 7.12561 14.1429 7.89487 14.1429H23.1173C23.8865 14.1429 24.5101 13.5193 24.5101 12.75V12.75ZM12.8049 8.10715C12.8049 7.33789 13.4285 6.71429 14.1977 6.71429H23.1173C23.8865 6.71429 24.5101 7.33789 24.5101 8.10715V8.10715C24.5101 8.8764 23.8865 9.5 23.1173 9.5H14.1977C13.4285 9.5 12.8049 8.8764 12.8049 8.10715V8.10715Z" fill="#FBC400"/>
<path d="M7.36391 20.0476C7.8901 20.0476 8.31368 20.2055 8.63466 20.5212C8.9609 20.8369 9.12402 21.3052 9.12402 21.9261V24.3571H7.89273V22.1156C7.89273 21.7788 7.81906 21.5289 7.67173 21.3658C7.5244 21.1974 7.31129 21.1132 7.03241 21.1132C6.72196 21.1132 6.47465 21.2105 6.29048 21.4052C6.10631 21.5946 6.01423 21.8788 6.01423 22.2576V24.3571H4.78294V20.1108H5.95898V20.608C6.1221 20.4291 6.32468 20.2923 6.56673 20.1976C6.80878 20.0976 7.0745 20.0476 7.36391 20.0476Z" fill="white"/>
<path d="M12.4253 23.4337C12.6463 23.4337 12.841 23.4021 13.0094 23.339C13.183 23.2706 13.3435 23.1653 13.4909 23.0233L14.146 23.7336C13.7461 24.1914 13.162 24.4203 12.3938 24.4203C11.9149 24.4203 11.4913 24.3282 11.123 24.144C10.7547 23.9546 10.4705 23.6941 10.2706 23.3626C10.0706 23.0311 9.97065 22.6549 9.97065 22.234C9.97065 21.8183 10.068 21.4447 10.2627 21.1132C10.4626 20.7764 10.7336 20.516 11.0756 20.3318C11.4229 20.1424 11.8123 20.0476 12.2438 20.0476C12.649 20.0476 13.0173 20.1345 13.3488 20.3081C13.6803 20.4765 13.9434 20.7238 14.1381 21.05C14.338 21.371 14.438 21.7525 14.438 22.1945L11.2966 22.8023C11.3861 23.0127 11.5255 23.1706 11.715 23.2758C11.9097 23.3811 12.1464 23.4337 12.4253 23.4337ZM12.2438 20.979C11.9333 20.979 11.6808 21.079 11.4861 21.2789C11.2914 21.4789 11.1888 21.7551 11.1783 22.1077L13.2462 21.7051C13.1883 21.4841 13.0699 21.3079 12.891 21.1763C12.7121 21.0448 12.4964 20.979 12.2438 20.979Z" fill="white"/>
<path d="M21.9825 20.1108V22.455C21.9825 23.0811 21.8115 23.5652 21.4694 23.9073C21.1274 24.2493 20.6407 24.4203 20.0093 24.4203C19.7041 24.4203 19.4331 24.3729 19.1963 24.2782C18.9648 24.1835 18.7701 24.0309 18.6122 23.8204C18.4544 24.0309 18.2597 24.1835 18.0281 24.2782C17.7966 24.3729 17.523 24.4203 17.2073 24.4203C16.5706 24.4203 16.0839 24.2493 15.7471 23.9073C15.4103 23.5652 15.242 23.0811 15.242 22.455V20.1108H16.4733V22.3603C16.4733 22.7128 16.5338 22.9733 16.6548 23.1416C16.7758 23.3048 16.9652 23.3863 17.2231 23.3863C17.4862 23.3863 17.6809 23.3021 17.8071 23.1338C17.9334 22.9654 17.9966 22.7075 17.9966 22.3603V20.1108H19.2279V22.3603C19.2279 22.7075 19.291 22.9654 19.4173 23.1338C19.5436 23.3021 19.7383 23.3863 20.0014 23.3863C20.2592 23.3863 20.4486 23.3048 20.5696 23.1416C20.6907 22.9733 20.7512 22.7128 20.7512 22.3603V20.1108H21.9825Z" fill="white"/>
<path d="M24.5177 24.4203C24.1652 24.4203 23.8205 24.3782 23.4838 24.294C23.147 24.2046 22.8787 24.094 22.6787 23.9625L23.0891 23.0785C23.2786 23.1995 23.5075 23.2995 23.7758 23.3784C24.0442 23.4521 24.3073 23.4889 24.5651 23.4889C25.086 23.4889 25.3465 23.36 25.3465 23.1022C25.3465 22.9812 25.2755 22.8943 25.1334 22.8417C24.9913 22.7891 24.7729 22.7444 24.4783 22.7075C24.131 22.6549 23.8442 22.5944 23.618 22.526C23.3917 22.4576 23.1944 22.3366 23.026 22.1629C22.8629 21.9893 22.7813 21.742 22.7813 21.421C22.7813 21.1526 22.8576 20.9159 23.0102 20.7106C23.1681 20.5002 23.3943 20.337 23.689 20.2213C23.9889 20.1055 24.3415 20.0476 24.7466 20.0476C25.0466 20.0476 25.3439 20.0818 25.6385 20.1503C25.9385 20.2134 26.1858 20.3028 26.3805 20.4186L25.97 21.2947C25.5964 21.0842 25.1886 20.979 24.7466 20.979C24.4835 20.979 24.2862 21.0158 24.1547 21.0895C24.0231 21.1632 23.9573 21.2579 23.9573 21.3736C23.9573 21.5052 24.0284 21.5973 24.1705 21.6499C24.3125 21.7025 24.5388 21.7525 24.8492 21.7999C25.1965 21.8577 25.4807 21.9209 25.7017 21.9893C25.9227 22.0524 26.1147 22.1708 26.2778 22.3445C26.441 22.5181 26.5225 22.7602 26.5225 23.0706C26.5225 23.3337 26.4436 23.5679 26.2857 23.7731C26.1279 23.9783 25.8964 24.1388 25.5912 24.2545C25.2912 24.365 24.9334 24.4203 24.5177 24.4203Z" fill="white"/>
</svg>