<svg width="665" height="323" viewBox="0 0 665 323" fill="none" xmlns="http://www.w3.org/2000/svg">
<path d="M96 160.727L115.261 128L134.523 160.727H96ZM115.261 157.062C115.99 157.062 116.611 156.807 117.122 156.295C117.643 155.774 117.903 155.149 117.903 154.42C117.903 153.691 117.643 153.071 117.122 152.559C116.611 152.039 115.99 151.778 115.261 151.778C114.532 151.778 113.907 152.039 113.386 152.559C112.875 153.071 112.619 153.691 112.619 154.42C112.619 155.149 112.875 155.774 113.386 156.295C113.907 156.807 114.532 157.062 115.261 157.062ZM113.528 148.568H116.994L117.25 138.909H113.273L113.528 148.568Z" fill="#E56717"/>
<path d="M172.68 124.04H177.76V161.08H172.68V124.04ZM158.6 137.56H167.2V141.84H158.6V137.56ZM165.04 124.68H170V159.44H165.04V124.68ZM147 148.48H149.56C154.8 148.48 158.28 148.36 162.36 147.56L162.76 151.88C158.64 152.72 154.96 152.88 149.56 152.88H147V148.48ZM147 128.2H161.12V132.44H152.24V150.32H147V128.2ZM208.117 124H213.477V161.16H208.117V124ZM193.517 126.6C199.117 126.6 203.237 131.72 203.237 139.8C203.237 147.96 199.117 153.08 193.517 153.08C187.917 153.08 183.797 147.96 183.797 139.8C183.797 131.72 187.917 126.6 193.517 126.6ZM193.517 131.44C190.757 131.44 188.877 134.36 188.877 139.8C188.877 145.32 190.757 148.28 193.517 148.28C196.277 148.28 198.117 145.32 198.117 139.8C198.117 134.36 196.277 131.44 193.517 131.44ZM245.314 124H250.594V161.16H245.314V124ZM238.954 137.04H245.914V141.36H238.954V137.04ZM221.194 148.48H224.154C230.274 148.48 234.834 148.4 240.074 147.56L240.554 151.8C235.194 152.64 230.394 152.8 224.154 152.8H221.194V148.48ZM221.194 127.12H238.354V131.44H226.474V149.84H221.194V127.12ZM225.274 137.44H237.074V141.6H225.274V137.44ZM256.311 140.64H289.871V144.52H256.311V140.64ZM260.071 146.36H285.871V155.16H265.431V158.32H260.151V151.8H280.631V149.96H260.071V146.36ZM260.151 157.2H286.911V160.8H260.151V157.2ZM260.431 124.68H285.791V133.4H265.751V136.44H260.471V130.08H280.551V128.24H260.431V124.68ZM260.471 135.32H286.471V138.92H260.471V135.32ZM326.045 124H331.405V161.04H326.045V124ZM330.005 138.16H336.525V142.52H330.005V138.16ZM316.325 127.84H321.525C321.525 138.96 317.285 148.48 304.965 154.68L302.005 150.64C311.725 145.6 316.325 138.8 316.325 128.76V127.84ZM304.045 127.84H319.045V132.12H304.045V127.84ZM364.922 124.04H370.242V161.08H364.922V124.04ZM347.722 129.88H351.882V133.16C351.882 142.2 348.682 150.8 342.162 154.32L338.722 150.28C344.842 147.24 347.722 140 347.722 133.16V129.88ZM348.962 129.88H353.122V133.16C353.122 139 356.082 146.2 362.082 149.28L359.002 153.4C352.442 150.04 348.962 141.28 348.962 133.16V129.88ZM340.162 127.6H360.522V131.88H340.162V127.6ZM359.002 134.2H368.522V138.56H359.002V134.2ZM359.002 141.96H368.522V146.36H359.002V141.96ZM389.999 135.76H395.279V140.68H389.999V135.76ZM392.719 124.4C401.159 124.4 406.119 126.6 406.119 130.68C406.119 134.76 401.159 137 392.719 137C384.239 137 379.319 134.76 379.319 130.68C379.319 126.6 384.239 124.4 392.719 124.4ZM392.719 128.28C387.359 128.28 384.839 129.04 384.839 130.68C384.839 132.4 387.359 133.12 392.719 133.12C398.079 133.12 400.599 132.4 400.599 130.68C400.599 129.04 398.079 128.28 392.719 128.28ZM375.959 139.04H409.439V143.24H375.959V139.04ZM379.799 145.2H405.399V154.72H385.079V158H379.839V151.04H400.159V149.16H379.799V145.2ZM379.839 156.84H406.359V160.84H379.839V156.84ZM435.974 125.12H440.654V126.84C440.654 133.96 435.054 140 425.334 141.44L423.254 137.16C431.774 136.04 435.974 131.2 435.974 126.84V125.12ZM436.974 125.12H441.614V126.84C441.614 131.16 445.854 136.04 454.334 137.16L452.294 141.44C442.574 140 436.974 133.96 436.974 126.84V125.12ZM436.014 147.52H441.294V161.08H436.014V147.52ZM422.054 144.16H455.534V148.48H422.054V144.16ZM472.149 145.72H477.069V149.36H480.749V145.72H485.669V160.68H472.149V145.72ZM477.069 153.2V156.68H480.749V153.2H477.069ZM491.389 145.44H495.429V148.2C495.429 153.64 493.229 158.92 487.749 161.04L485.149 157.08C489.589 155.24 491.389 151.68 491.389 148.2V145.44ZM492.629 145.44H496.669V148.2C496.669 152.04 498.429 155.56 502.949 157.08L500.309 161.04C494.709 159.04 492.629 154.04 492.629 148.2V145.44ZM486.789 131.96H496.069V136.28H486.789V131.96ZM478.309 125.44C483.869 125.44 488.069 129.04 488.069 134.16C488.069 139.28 483.869 142.92 478.309 142.92C472.709 142.92 468.509 139.28 468.509 134.16C468.509 129.04 472.709 125.44 478.309 125.44ZM478.309 129.8C475.589 129.8 473.589 131.44 473.589 134.16C473.589 136.88 475.589 138.56 478.309 138.56C481.029 138.56 482.989 136.88 482.989 134.16C482.989 131.44 481.029 129.8 478.309 129.8ZM493.749 124.04H499.069V143.64H493.749V124.04ZM515.025 126.6C520.545 126.6 524.585 131.72 524.585 139.8C524.585 147.96 520.545 153.08 515.025 153.08C509.465 153.08 505.465 147.96 505.465 139.8C505.465 131.72 509.465 126.6 515.025 126.6ZM515.025 131.44C512.345 131.44 510.545 134.36 510.545 139.8C510.545 145.32 512.345 148.28 515.025 148.28C517.745 148.28 519.505 145.32 519.505 139.8C519.505 134.36 517.745 131.44 515.025 131.44ZM530.665 124H535.945V161.16H530.665V124ZM523.025 137.36H532.905V141.64H523.025V137.36ZM549.062 142.84H554.342V153.24H549.062V142.84ZM562.502 142.84H567.822V153.24H562.502V142.84ZM541.702 152.48H575.222V156.8H541.702V152.48ZM558.422 125.84C566.382 125.84 572.262 129.76 572.262 135.8C572.262 141.84 566.382 145.72 558.422 145.72C550.422 145.72 544.582 141.84 544.582 135.8C544.582 129.76 550.422 125.84 558.422 125.84ZM558.422 130C553.262 130 549.822 132.12 549.822 135.8C549.822 139.44 553.262 141.6 558.422 141.6C563.582 141.6 567.022 139.44 567.022 135.8C567.022 132.12 563.582 130 558.422 130Z" fill="white"/>
<path d="M217.044 179H219.396V204.368H217.044V179ZM218.836 188.996H223.54V190.956H218.836V188.996ZM201 196.108H202.988C207.664 196.108 210.94 195.94 214.72 195.24L214.972 197.2C211.08 197.928 207.748 198.068 202.988 198.068H201V196.108ZM201 181.464H212.76V183.368H203.296V196.976H201V181.464ZM225.666 193.056H248.626V194.932H225.666V193.056ZM228.69 201.876H246.218V203.78H228.69V201.876ZM228.69 196.92H231.014V202.604H228.69V196.92ZM228.578 179.868H245.658V186.14H230.93V189.556H228.634V184.432H243.39V181.688H228.578V179.868ZM228.634 188.94H246.218V190.76H228.634V188.94ZM269.855 180.652H272.291C272.291 187.036 267.811 191.6 260.531 193.644L259.579 191.824C265.991 190.004 269.855 186.336 269.855 181.632V180.652ZM260.895 180.652H271.423V182.528H260.895V180.652ZM277.807 179.028H280.131V193.476H277.807V179.028ZM272.319 185.524H278.255V187.456H272.319V185.524ZM263.807 194.54H280.131V204.004H263.807V194.54ZM277.863 196.416H266.103V202.1H277.863V196.416ZM290.377 180.54H292.225V183.928C292.225 187.736 290.069 191.74 286.345 193.448L285.085 191.628C288.389 190.144 290.377 186.812 290.377 183.928V180.54ZM290.741 180.54H292.589V183.928C292.589 186.812 294.465 189.696 297.713 191.012L296.481 192.804C292.813 191.264 290.741 187.708 290.741 183.928V180.54ZM304.181 179.056H306.393V194.344H304.181V179.056ZM300.093 185.608H304.881V187.54H300.093V185.608ZM298.749 179.476H300.961V194.204H298.749V179.476ZM289.425 195.716H306.393V204.34H304.097V197.62H289.425V195.716ZM317.59 180.96C321.258 180.96 323.89 184.404 323.89 189.78C323.89 195.184 321.258 198.628 317.59 198.628C313.894 198.628 311.29 195.184 311.29 189.78C311.29 184.404 313.894 180.96 317.59 180.96ZM317.59 183.06C315.154 183.06 313.502 185.692 313.502 189.78C313.502 193.896 315.154 196.584 317.59 196.584C320.026 196.584 321.678 193.896 321.678 189.78C321.678 185.692 320.026 183.06 317.59 183.06ZM329.378 179H331.674V204.368H329.378V179ZM323.134 188.66H330.386V190.564H323.134V188.66ZM336.572 190.788H359.532V192.552H336.572V190.788ZM339.288 194.596H356.648V200H341.668V202.968H339.372V198.404H354.38V196.248H339.288V194.596ZM339.372 202.352H357.46V204.032H339.372V202.352ZM339.484 179.756H356.564V185.02H341.836V187.764H339.54V183.452H354.296V181.408H339.484V179.756ZM339.54 187.204H357.04V188.884H339.54V187.204ZM388.629 179.028H390.981V192.608H388.629V179.028ZM374.657 193.868H376.953V196.948H388.685V193.868H390.981V204.004H374.657V193.868ZM376.953 198.796V202.128H388.685V198.796H376.953ZM377.401 180.232C381.237 180.232 383.981 182.612 383.981 186.056C383.981 189.528 381.237 191.908 377.401 191.908C373.565 191.908 370.793 189.528 370.793 186.056C370.793 182.612 373.565 180.232 377.401 180.232ZM377.401 182.164C374.881 182.164 373.061 183.76 373.061 186.056C373.061 188.352 374.881 189.948 377.401 189.948C379.921 189.948 381.741 188.352 381.741 186.056C381.741 183.76 379.921 182.164 377.401 182.164ZM397.027 191.572H398.847C403.831 191.572 406.295 191.488 409.319 190.956L409.571 192.832C406.435 193.392 403.915 193.476 398.847 193.476H397.027V191.572ZM396.971 180.54H407.891V187.736H399.323V192.72H397.027V185.916H405.595V182.444H396.971V180.54ZM414.471 179.056H416.795V194.596H414.471V179.056ZM409.571 182.78H415.003V184.684H409.571V182.78ZM409.571 188.016H415.003V189.92H409.571V188.016ZM399.855 195.968H416.795V204.396H414.471V197.872H399.855V195.968ZM421.693 183.34H434.237V185.244H421.693V183.34ZM427.965 186.924C431.129 186.924 433.425 189.304 433.425 192.72C433.425 196.108 431.129 198.488 427.965 198.488C424.829 198.488 422.533 196.108 422.533 192.72C422.533 189.304 424.829 186.924 427.965 186.924ZM427.965 188.912C426.033 188.912 424.633 190.48 424.633 192.72C424.633 194.96 426.033 196.528 427.965 196.528C429.925 196.528 431.353 194.96 431.353 192.72C431.353 190.48 429.925 188.912 427.965 188.912ZM440.929 179.028H443.169V204.34H440.929V179.028ZM436.897 189.668H441.685V191.6H436.897V189.668ZM435.525 179.588H437.709V203.108H435.525V179.588ZM426.845 179.756H429.141V184.516H426.845V179.756ZM447.506 199.188H470.438V201.12H447.506V199.188ZM457.754 193.14H460.078V199.748H457.754V193.14ZM450.194 180.82H452.49V185.328H465.398V180.82H467.694V193.756H450.194V180.82ZM452.49 187.204V191.852H465.398V187.204H452.49ZM483.232 188.072H488.076V190.004H483.232V188.072ZM478.5 181.408H480.32V186.224C480.32 191.516 478.108 196.64 474.412 198.908L472.956 197.144C476.428 195.1 478.5 190.564 478.5 186.224V181.408ZM478.948 181.408H480.74V186.14C480.74 190.2 482.644 194.512 485.976 196.528L484.632 198.348C480.992 196.108 478.948 191.068 478.948 186.14V181.408ZM492.528 179.028H494.768V204.34H492.528V179.028ZM487.404 179.56H489.588V203.08H487.404V179.56ZM504.622 192.048H506.918V199.636H504.622V192.048ZM513.974 192.048H516.298V199.636H513.974V192.048ZM499.022 199.188H521.954V201.12H499.022V199.188ZM510.446 180.624C515.794 180.624 519.63 183.172 519.63 187.148C519.63 191.096 515.794 193.644 510.446 193.644C505.07 193.644 501.234 191.096 501.234 187.148C501.234 183.172 505.07 180.624 510.446 180.624ZM510.446 182.472C506.386 182.472 503.474 184.32 503.474 187.148C503.474 189.948 506.386 191.796 510.446 191.796C514.506 191.796 517.39 189.948 517.39 187.148C517.39 184.32 514.506 182.472 510.446 182.472Z" fill="#BBBBBB"/>
</svg>
