<svg width="864" height="204" viewBox="0 0 864 204" fill="none" xmlns="http://www.w3.org/2000/svg">
<path d="M190 109.727L209.261 77L228.523 109.727H190ZM209.261 106.062C209.99 106.062 210.611 105.807 211.122 105.295C211.643 104.774 211.903 104.149 211.903 103.42C211.903 102.691 211.643 102.071 211.122 101.559C210.611 101.039 209.99 100.778 209.261 100.778C208.532 100.778 207.907 101.039 207.386 101.559C206.875 102.071 206.619 102.691 206.619 103.42C206.619 104.149 206.875 104.774 207.386 105.295C207.907 105.807 208.532 106.062 209.261 106.062ZM207.528 97.5682H210.994L211.25 87.9091H207.273L207.528 97.5682Z" fill="#E56717"/>
<path d="M273.68 77.04H278.76V114.08H273.68V77.04ZM259.6 90.56H268.2V94.84H259.6V90.56ZM266.04 77.68H271V112.44H266.04V77.68ZM248 101.48H250.56C255.8 101.48 259.28 101.36 263.36 100.56L263.76 104.88C259.64 105.72 255.96 105.88 250.56 105.88H248V101.48ZM248 81.2H262.12V85.44H253.24V103.32H248V81.2ZM309.117 77H314.477V114.16H309.117V77ZM294.517 79.6C300.117 79.6 304.237 84.72 304.237 92.8C304.237 100.96 300.117 106.08 294.517 106.08C288.917 106.08 284.797 100.96 284.797 92.8C284.797 84.72 288.917 79.6 294.517 79.6ZM294.517 84.44C291.757 84.44 289.877 87.36 289.877 92.8C289.877 98.32 291.757 101.28 294.517 101.28C297.277 101.28 299.117 98.32 299.117 92.8C299.117 87.36 297.277 84.44 294.517 84.44ZM346.314 77H351.594V114.16H346.314V77ZM339.954 90.04H346.914V94.36H339.954V90.04ZM322.194 101.48H325.154C331.274 101.48 335.834 101.4 341.074 100.56L341.554 104.8C336.194 105.64 331.394 105.8 325.154 105.8H322.194V101.48ZM322.194 80.12H339.354V84.44H327.474V102.84H322.194V80.12ZM326.274 90.44H338.074V94.6H326.274V90.44ZM357.311 93.64H390.871V97.52H357.311V93.64ZM361.071 99.36H386.871V108.16H366.431V111.32H361.151V104.8H381.631V102.96H361.071V99.36ZM361.151 110.2H387.911V113.8H361.151V110.2ZM361.431 77.68H386.791V86.4H366.751V89.44H361.471V83.08H381.551V81.24H361.431V77.68ZM361.471 88.32H387.471V91.92H361.471V88.32ZM427.045 77H432.405V114.04H427.045V77ZM431.005 91.16H437.525V95.52H431.005V91.16ZM417.325 80.84H422.525C422.525 91.96 418.285 101.48 405.965 107.68L403.005 103.64C412.725 98.6 417.325 91.8 417.325 81.76V80.84ZM405.045 80.84H420.045V85.12H405.045V80.84ZM465.922 77.04H471.242V114.08H465.922V77.04ZM448.722 82.88H452.882V86.16C452.882 95.2 449.682 103.8 443.162 107.32L439.722 103.28C445.842 100.24 448.722 93 448.722 86.16V82.88ZM449.962 82.88H454.122V86.16C454.122 92 457.082 99.2 463.082 102.28L460.002 106.4C453.442 103.04 449.962 94.28 449.962 86.16V82.88ZM441.162 80.6H461.522V84.88H441.162V80.6ZM460.002 87.2H469.522V91.56H460.002V87.2ZM460.002 94.96H469.522V99.36H460.002V94.96ZM490.999 88.76H496.279V93.68H490.999V88.76ZM493.719 77.4C502.159 77.4 507.119 79.6 507.119 83.68C507.119 87.76 502.159 90 493.719 90C485.239 90 480.319 87.76 480.319 83.68C480.319 79.6 485.239 77.4 493.719 77.4ZM493.719 81.28C488.359 81.28 485.839 82.04 485.839 83.68C485.839 85.4 488.359 86.12 493.719 86.12C499.079 86.12 501.599 85.4 501.599 83.68C501.599 82.04 499.079 81.28 493.719 81.28ZM476.959 92.04H510.439V96.24H476.959V92.04ZM480.799 98.2H506.399V107.72H486.079V111H480.839V104.04H501.159V102.16H480.799V98.2ZM480.839 109.84H507.359V113.84H480.839V109.84ZM536.974 78.12H541.654V79.84C541.654 86.96 536.054 93 526.334 94.44L524.254 90.16C532.774 89.04 536.974 84.2 536.974 79.84V78.12ZM537.974 78.12H542.614V79.84C542.614 84.16 546.854 89.04 555.334 90.16L553.294 94.44C543.574 93 537.974 86.96 537.974 79.84V78.12ZM537.014 100.52H542.294V114.08H537.014V100.52ZM523.054 97.16H556.534V101.48H523.054V97.16ZM573.149 98.72H578.069V102.36H581.749V98.72H586.669V113.68H573.149V98.72ZM578.069 106.2V109.68H581.749V106.2H578.069ZM592.389 98.44H596.429V101.2C596.429 106.64 594.229 111.92 588.749 114.04L586.149 110.08C590.589 108.24 592.389 104.68 592.389 101.2V98.44ZM593.629 98.44H597.669V101.2C597.669 105.04 599.429 108.56 603.949 110.08L601.309 114.04C595.709 112.04 593.629 107.04 593.629 101.2V98.44ZM587.789 84.96H597.069V89.28H587.789V84.96ZM579.309 78.44C584.869 78.44 589.069 82.04 589.069 87.16C589.069 92.28 584.869 95.92 579.309 95.92C573.709 95.92 569.509 92.28 569.509 87.16C569.509 82.04 573.709 78.44 579.309 78.44ZM579.309 82.8C576.589 82.8 574.589 84.44 574.589 87.16C574.589 89.88 576.589 91.56 579.309 91.56C582.029 91.56 583.989 89.88 583.989 87.16C583.989 84.44 582.029 82.8 579.309 82.8ZM594.749 77.04H600.069V96.64H594.749V77.04ZM616.025 79.6C621.545 79.6 625.585 84.72 625.585 92.8C625.585 100.96 621.545 106.08 616.025 106.08C610.465 106.08 606.465 100.96 606.465 92.8C606.465 84.72 610.465 79.6 616.025 79.6ZM616.025 84.44C613.345 84.44 611.545 87.36 611.545 92.8C611.545 98.32 613.345 101.28 616.025 101.28C618.745 101.28 620.505 98.32 620.505 92.8C620.505 87.36 618.745 84.44 616.025 84.44ZM631.665 77H636.945V114.16H631.665V77ZM624.025 90.36H633.905V94.64H624.025V90.36ZM650.062 95.84H655.342V106.24H650.062V95.84ZM663.502 95.84H668.822V106.24H663.502V95.84ZM642.702 105.48H676.222V109.8H642.702V105.48ZM659.422 78.84C667.382 78.84 673.262 82.76 673.262 88.8C673.262 94.84 667.382 98.72 659.422 98.72C651.422 98.72 645.582 94.84 645.582 88.8C645.582 82.76 651.422 78.84 659.422 78.84ZM659.422 83C654.262 83 650.822 85.12 650.822 88.8C650.822 92.44 654.262 94.6 659.422 94.6C664.582 94.6 668.022 92.44 668.022 88.8C668.022 85.12 664.582 83 659.422 83Z" fill="white"/>
<path d="M318.044 133H320.396V158.368H318.044V133ZM319.836 142.996H324.54V144.956H319.836V142.996ZM302 150.108H303.988C308.664 150.108 311.94 149.94 315.72 149.24L315.972 151.2C312.08 151.928 308.748 152.068 303.988 152.068H302V150.108ZM302 135.464H313.76V137.368H304.296V150.976H302V135.464ZM326.666 147.056H349.626V148.932H326.666V147.056ZM329.69 155.876H347.218V157.78H329.69V155.876ZM329.69 150.92H332.014V156.604H329.69V150.92ZM329.578 133.868H346.658V140.14H331.93V143.556H329.634V138.432H344.39V135.688H329.578V133.868ZM329.634 142.94H347.218V144.76H329.634V142.94ZM370.855 134.652H373.291C373.291 141.036 368.811 145.6 361.531 147.644L360.579 145.824C366.991 144.004 370.855 140.336 370.855 135.632V134.652ZM361.895 134.652H372.423V136.528H361.895V134.652ZM378.807 133.028H381.131V147.476H378.807V133.028ZM373.319 139.524H379.255V141.456H373.319V139.524ZM364.807 148.54H381.131V158.004H364.807V148.54ZM378.863 150.416H367.103V156.1H378.863V150.416ZM391.377 134.54H393.225V137.928C393.225 141.736 391.069 145.74 387.345 147.448L386.085 145.628C389.389 144.144 391.377 140.812 391.377 137.928V134.54ZM391.741 134.54H393.589V137.928C393.589 140.812 395.465 143.696 398.713 145.012L397.481 146.804C393.813 145.264 391.741 141.708 391.741 137.928V134.54ZM405.181 133.056H407.393V148.344H405.181V133.056ZM401.093 139.608H405.881V141.54H401.093V139.608ZM399.749 133.476H401.961V148.204H399.749V133.476ZM390.425 149.716H407.393V158.34H405.097V151.62H390.425V149.716ZM418.59 134.96C422.258 134.96 424.89 138.404 424.89 143.78C424.89 149.184 422.258 152.628 418.59 152.628C414.894 152.628 412.29 149.184 412.29 143.78C412.29 138.404 414.894 134.96 418.59 134.96ZM418.59 137.06C416.154 137.06 414.502 139.692 414.502 143.78C414.502 147.896 416.154 150.584 418.59 150.584C421.026 150.584 422.678 147.896 422.678 143.78C422.678 139.692 421.026 137.06 418.59 137.06ZM430.378 133H432.674V158.368H430.378V133ZM424.134 142.66H431.386V144.564H424.134V142.66ZM437.572 144.788H460.532V146.552H437.572V144.788ZM440.288 148.596H457.648V154H442.668V156.968H440.372V152.404H455.38V150.248H440.288V148.596ZM440.372 156.352H458.46V158.032H440.372V156.352ZM440.484 133.756H457.564V139.02H442.836V141.764H440.54V137.452H455.296V135.408H440.484V133.756ZM440.54 141.204H458.04V142.884H440.54V141.204ZM489.629 133.028H491.981V146.608H489.629V133.028ZM475.657 147.868H477.953V150.948H489.685V147.868H491.981V158.004H475.657V147.868ZM477.953 152.796V156.128H489.685V152.796H477.953ZM478.401 134.232C482.237 134.232 484.981 136.612 484.981 140.056C484.981 143.528 482.237 145.908 478.401 145.908C474.565 145.908 471.793 143.528 471.793 140.056C471.793 136.612 474.565 134.232 478.401 134.232ZM478.401 136.164C475.881 136.164 474.061 137.76 474.061 140.056C474.061 142.352 475.881 143.948 478.401 143.948C480.921 143.948 482.741 142.352 482.741 140.056C482.741 137.76 480.921 136.164 478.401 136.164ZM498.027 145.572H499.847C504.831 145.572 507.295 145.488 510.319 144.956L510.571 146.832C507.435 147.392 504.915 147.476 499.847 147.476H498.027V145.572ZM497.971 134.54H508.891V141.736H500.323V146.72H498.027V139.916H506.595V136.444H497.971V134.54ZM515.471 133.056H517.795V148.596H515.471V133.056ZM510.571 136.78H516.003V138.684H510.571V136.78ZM510.571 142.016H516.003V143.92H510.571V142.016ZM500.855 149.968H517.795V158.396H515.471V151.872H500.855V149.968ZM522.693 137.34H535.237V139.244H522.693V137.34ZM528.965 140.924C532.129 140.924 534.425 143.304 534.425 146.72C534.425 150.108 532.129 152.488 528.965 152.488C525.829 152.488 523.533 150.108 523.533 146.72C523.533 143.304 525.829 140.924 528.965 140.924ZM528.965 142.912C527.033 142.912 525.633 144.48 525.633 146.72C525.633 148.96 527.033 150.528 528.965 150.528C530.925 150.528 532.353 148.96 532.353 146.72C532.353 144.48 530.925 142.912 528.965 142.912ZM541.929 133.028H544.169V158.34H541.929V133.028ZM537.897 143.668H542.685V145.6H537.897V143.668ZM536.525 133.588H538.709V157.108H536.525V133.588ZM527.845 133.756H530.141V138.516H527.845V133.756ZM548.506 153.188H571.438V155.12H548.506V153.188ZM558.754 147.14H561.078V153.748H558.754V147.14ZM551.194 134.82H553.49V139.328H566.398V134.82H568.694V147.756H551.194V134.82ZM553.49 141.204V145.852H566.398V141.204H553.49ZM584.232 142.072H589.076V144.004H584.232V142.072ZM579.5 135.408H581.32V140.224C581.32 145.516 579.108 150.64 575.412 152.908L573.956 151.144C577.428 149.1 579.5 144.564 579.5 140.224V135.408ZM579.948 135.408H581.74V140.14C581.74 144.2 583.644 148.512 586.976 150.528L585.632 152.348C581.992 150.108 579.948 145.068 579.948 140.14V135.408ZM593.528 133.028H595.768V158.34H593.528V133.028ZM588.404 133.56H590.588V157.08H588.404V133.56ZM605.622 146.048H607.918V153.636H605.622V146.048ZM614.974 146.048H617.298V153.636H614.974V146.048ZM600.022 153.188H622.954V155.12H600.022V153.188ZM611.446 134.624C616.794 134.624 620.63 137.172 620.63 141.148C620.63 145.096 616.794 147.644 611.446 147.644C606.07 147.644 602.234 145.096 602.234 141.148C602.234 137.172 606.07 134.624 611.446 134.624ZM611.446 136.472C607.386 136.472 604.474 138.32 604.474 141.148C604.474 143.948 607.386 145.796 611.446 145.796C615.506 145.796 618.39 143.948 618.39 141.148C618.39 138.32 615.506 136.472 611.446 136.472Z" fill="#BBBBBB" fill-opacity="0.733333"/>
</svg>
