<svg width="73" height="73" viewBox="0 0 73 73" fill="none" xmlns="http://www.w3.org/2000/svg">
<path d="M52.1523 46.9951C54.3306 46.8698 55.4781 48.4985 56.8673 49.8969L60.3969 53.4273C61.2439 54.2788 62.2361 55.0601 62.9745 56.0068C64.9345 58.5196 62.761 62.3577 59.776 62.9555L59.0759 63.0429C57.4557 63.1071 56.3673 62.2784 55.308 61.1821L50.4556 56.258C49.4334 55.2158 47.8789 54.1325 47.5841 52.6049L47.5083 52.0429C47.3625 49.5228 49.7271 47.1188 52.1523 46.9951Z" fill="#00537A"/>
<path d="M29.8597 13.6782C38.1342 13.7243 45.3081 19.73 46.251 28.0701C46.717 32.1907 45.7041 36.6022 43.0892 39.8703C43.4091 40.0775 43.6116 40.3521 43.862 40.6336L46.3699 43.1692C46.7135 43.5045 47.162 43.8413 47.422 44.2445L47.4546 44.2969C48.5597 46.0395 47.0856 48.0723 44.8022 47.113C43.4748 46.5555 42.5333 45.3184 41.5324 44.3259C41.0458 43.8434 40.5015 43.4054 40.0494 42.8916L37.7664 44.3465C36.2753 45.1029 34.7086 45.7042 33.0531 45.9784C24.0233 47.4736 15.5926 41.4981 14.1467 32.3233L14.0361 31.4773C13.9467 30.9586 13.9752 30.407 13.9757 29.8816C13.9843 21.0968 21.0811 13.7692 29.8597 13.6782Z" fill="#00537A"/>
<path d="M29.7532 18.4234C30.3013 18.3965 30.8874 18.3935 31.4316 18.4563C36.7182 19.0659 41.3282 23.8087 41.6591 29.1601C42.0706 35.8173 37.4258 41.3597 30.6972 41.6721L30.0978 41.6713C27.0715 41.6307 23.8698 40.0966 21.7683 37.9371C16.2098 32.2258 18.5344 22.0546 25.8773 19.1672C27.0294 18.7142 28.5114 18.3987 29.7532 18.4234Z" fill="#A8E8F9"/>
</svg>
