<svg width="800" height="204" viewBox="0 0 800 204" fill="none" xmlns="http://www.w3.org/2000/svg">
<path d="M196 100.727L215.262 68L234.523 100.727H196ZM215.262 97.0623C215.991 97.0623 216.611 96.8073 217.122 96.2953C217.643 95.7743 217.904 95.1493 217.904 94.4203C217.904 93.6913 217.643 93.0713 217.122 92.5593C216.611 92.0393 215.991 91.7783 215.262 91.7783C214.532 91.7783 213.907 92.0393 213.387 92.5593C212.875 93.0713 212.62 93.6913 212.62 94.4203C212.62 95.1493 212.875 95.7743 213.387 96.2953C213.907 96.8073 214.532 97.0623 215.262 97.0623ZM213.529 88.5682H216.995L217.25 78.9091H213.273L213.529 88.5682Z" fill="#E56717"/>
<path d="M275.6 68.04H280.92V86.52H275.6V68.04ZM278.76 75.12H285.8V79.48H278.76V75.12ZM256.44 88H280.92V98.16H261.8V102.56H256.52V94.32H275.68V92.08H256.44V88ZM256.52 100.52H282V104.68H256.52V100.52ZM261.88 69.12C267.56 69.12 271.76 72.6 271.76 77.52C271.76 82.4 267.56 85.92 261.88 85.92C256.24 85.92 252 82.4 252 77.52C252 72.6 256.24 69.12 261.88 69.12ZM261.88 73.4C259.16 73.4 257.16 74.92 257.16 77.52C257.16 80.12 259.16 81.68 261.88 81.68C264.64 81.68 266.64 80.12 266.64 77.52C266.64 74.92 264.64 73.4 261.88 73.4ZM311.775 69.12H316.455V70.84C316.455 77.96 310.855 84 301.135 85.44L299.055 81.16C307.575 80.04 311.775 75.2 311.775 70.84V69.12ZM312.775 69.12H317.415V70.84C317.415 75.16 321.655 80.04 330.135 81.16L328.095 85.44C318.375 84 312.775 77.96 312.775 70.84V69.12ZM311.815 91.52H317.095V105.08H311.815V91.52ZM297.855 88.16H331.335V92.48H297.855V88.16ZM347.95 89.72H352.87V93.36H356.55V89.72H361.47V104.68H347.95V89.72ZM352.87 97.2V100.68H356.55V97.2H352.87ZM367.19 89.44H371.23V92.2C371.23 97.64 369.03 102.92 363.55 105.04L360.95 101.08C365.39 99.24 367.19 95.68 367.19 92.2V89.44ZM368.43 89.44H372.47V92.2C372.47 96.04 374.23 99.56 378.75 101.08L376.11 105.04C370.51 103.04 368.43 98.04 368.43 92.2V89.44ZM362.59 75.96H371.87V80.28H362.59V75.96ZM354.11 69.44C359.67 69.44 363.87 73.04 363.87 78.16C363.87 83.28 359.67 86.92 354.11 86.92C348.51 86.92 344.31 83.28 344.31 78.16C344.31 73.04 348.51 69.44 354.11 69.44ZM354.11 73.8C351.39 73.8 349.39 75.44 349.39 78.16C349.39 80.88 351.39 82.56 354.11 82.56C356.83 82.56 358.79 80.88 358.79 78.16C358.79 75.44 356.83 73.8 354.11 73.8ZM369.55 68.04H374.87V87.64H369.55V68.04ZM384.827 78.04H410.507V82.24H384.827V78.04ZM380.667 86.08H414.227V90.32H380.667V86.08ZM384.827 69.36H390.107V80.12H384.827V69.36ZM384.467 100.04H410.707V104.28H384.467V100.04ZM384.467 93.28H389.787V101.16H384.467V93.28ZM441.521 81.68H447.601V85.96H441.521V81.68ZM453.481 68.04H458.561V105.08H453.481V68.04ZM445.921 68.6H450.921V103.4H445.921V68.6ZM435.041 70.64C439.961 70.64 443.121 75.72 443.121 84.08C443.121 92.48 439.961 97.56 435.041 97.56C430.161 97.56 427.041 92.48 427.041 84.08C427.041 75.72 430.161 70.64 435.041 70.64ZM435.041 75.64C433.041 75.64 431.881 78.44 431.881 84.08C431.881 89.76 433.041 92.52 435.041 92.52C437.121 92.52 438.281 89.76 438.281 84.08C438.281 78.44 437.121 75.64 435.041 75.64ZM489.198 68H494.518V105.16H489.198V68ZM483.398 81.36H490.278V85.64H483.398V81.36ZM464.798 92.2H467.838C473.838 92.2 478.598 92.08 483.958 91.16L484.438 95.48C478.958 96.4 473.998 96.6 467.838 96.6H464.798V92.2ZM464.718 71.16H481.398V85.08H470.078V93.52H464.798V80.88H476.158V75.4H464.718V71.16ZM515.035 76.2H521.195V80.48H515.035V76.2ZM515.035 87.64H521.195V91.96H515.035V87.64ZM527.075 68.04H532.155V105.08H527.075V68.04ZM519.675 68.6H524.635V103.4H519.675V68.6ZM508.635 70.64C513.555 70.64 516.715 75.72 516.715 84.08C516.715 92.48 513.555 97.56 508.635 97.56C503.755 97.56 500.635 92.48 500.635 84.08C500.635 75.72 503.755 70.64 508.635 70.64ZM508.635 75.64C506.595 75.64 505.395 78.44 505.395 84.08C505.395 89.76 506.595 92.52 508.635 92.52C510.715 92.52 511.915 89.76 511.915 84.08C511.915 78.44 510.715 75.64 508.635 75.64ZM544.512 86.84H549.792V97.24H544.512V86.84ZM557.952 86.84H563.272V97.24H557.952V86.84ZM537.152 96.48H570.672V100.8H537.152V96.48ZM553.872 69.84C561.832 69.84 567.712 73.76 567.712 79.8C567.712 85.84 561.832 89.72 553.872 89.72C545.872 89.72 540.032 85.84 540.032 79.8C540.032 73.76 545.872 69.84 553.872 69.84ZM553.872 74C548.712 74 545.272 76.12 545.272 79.8C545.272 83.44 548.712 85.6 553.872 85.6C559.032 85.6 562.472 83.44 562.472 79.8C562.472 76.12 559.032 74 553.872 74Z" fill="white"/>
<path d="M212.6 123.52H214.42V128.336C214.42 133.628 212.18 138.752 208.484 140.992L207 139.256C210.5 137.212 212.6 132.676 212.6 128.336V123.52ZM213.02 123.52H214.84V128.196C214.84 132.368 216.8 136.652 220.16 138.528L218.76 140.348C215.064 138.22 213.02 133.292 213.02 128.196V123.52ZM226.572 121.14H228.812V146.452H226.572V121.14ZM222.568 131.304H227.412V133.236H222.568V131.304ZM221 121.672H223.212V145.192H221V121.672ZM233.066 141.412H255.998V143.344H233.066V141.412ZM243.314 135.98H245.638V142.224H243.314V135.98ZM235.838 123.016H253.17V130.688H238.218V135.756H235.922V128.812H250.874V124.892H235.838V123.016ZM235.922 134.776H253.758V136.68H235.922V134.776ZM269.107 123.66H285.403V125.592H269.107V123.66ZM266.699 140.992H289.575V142.924H266.699V140.992ZM275.575 131.948H277.899V141.944H275.575V131.948ZM284.535 123.66H286.831V126.18C286.831 129.316 286.831 132.788 285.907 137.912L283.583 137.604C284.535 132.76 284.535 129.204 284.535 126.18V123.66ZM299.317 125.2H301.221V126.264C301.221 130.688 298.309 134.356 294.053 135.756L292.905 133.936C296.713 132.732 299.317 129.652 299.317 126.264V125.2ZM299.709 125.2H301.613V126.264C301.613 129.456 304.301 132.312 308.053 133.404L306.989 135.224C302.677 133.936 299.709 130.492 299.709 126.264V125.2ZM293.549 124.108H307.325V125.984H293.549V124.108ZM299.317 121H301.613V124.92H299.317V121ZM310.853 121.168H313.205V136.148H310.853V121.168ZM296.853 137.436H313.205V146.116H296.853V137.436ZM310.909 139.284H299.121V144.24H310.909V139.284ZM343.393 121.168H345.717V140.152H343.393V121.168ZM344.989 129.456H349.469V131.416H344.989V129.456ZM326.145 124.22H341.097V126.096H326.145V124.22ZM333.621 127.496C337.205 127.496 339.669 129.372 339.669 132.228C339.669 135.056 337.205 136.932 333.621 136.932C330.009 136.932 327.545 135.056 327.545 132.228C327.545 129.372 330.009 127.496 333.621 127.496ZM333.621 129.316C331.325 129.316 329.757 130.464 329.757 132.228C329.757 133.964 331.325 135.112 333.621 135.112C335.889 135.112 337.457 133.964 337.457 132.228C337.457 130.464 335.889 129.316 333.621 129.316ZM332.445 121.14H334.769V125.2H332.445V121.14ZM329.953 143.988H346.865V145.892H329.953V143.988ZM329.953 138.64H332.277V144.8H329.953V138.64ZM371.65 128.28H378.93V130.184H371.65V128.28ZM378.202 121.168H380.526V139.9H378.202V121.168ZM364.258 143.988H381.142V145.892H364.258V143.988ZM364.258 138.08H366.582V144.968H364.258V138.08ZM360.954 122.82H363.25V127.3H370.11V122.82H372.378V135.588H360.954V122.82ZM363.25 129.12V133.684H370.11V129.12H363.25ZM386.516 123.408H398.136V135.14H386.516V123.408ZM395.868 125.284H388.784V133.264H395.868V125.284ZM402.784 121.112H405.108V139.676H402.784V121.112ZM404.38 128.84H408.86V130.772H404.38V128.84ZM389.344 143.988H406.256V145.892H389.344V143.988ZM389.344 137.912H391.668V144.8H389.344V137.912ZM419.085 136.12H442.045V138.024H419.085V136.12ZM429.333 137.016H431.629V146.452H429.333V137.016ZM421.969 122.148H424.293V125.62H436.809V122.148H439.105V133.096H421.969V122.148ZM424.293 127.496V131.22H436.809V127.496H424.293ZM446.019 133.236H447.951C453.019 133.236 455.847 133.124 459.235 132.536L459.487 134.412C456.015 135.028 453.103 135.14 447.951 135.14H446.019V133.236ZM446.019 122.848H457.583V124.752H448.315V133.964H446.019V122.848ZM447.587 127.972H457.107V129.848H447.587V127.972ZM462.175 121.14H464.499V136.456H462.175V121.14ZM463.855 127.832H468.251V129.792H463.855V127.832ZM448.063 137.716H464.499V146.452H462.175V139.62H448.063V137.716ZM473.513 133.264H490.901V135.168H473.513V133.264ZM470.629 141.104H493.561V143.036H470.629V141.104ZM473.513 123.464H490.649V125.396H475.837V134.104H473.513V123.464ZM497.646 131.64H499.69C504.618 131.64 507.838 131.528 511.758 130.912L511.982 132.732C507.978 133.376 504.702 133.488 499.69 133.488H497.646V131.64ZM497.59 122.344H509.154V128.616H499.914V132.536H497.646V126.908H506.886V124.136H497.59V122.344ZM500.754 135.588H517.134V141.58H503.134V145.164H500.81V139.872H514.782V137.408H500.754V135.588ZM500.81 144.352H517.974V146.172H500.81V144.352ZM514.782 121.14H517.134V134.44H514.782V121.14ZM541.408 121.14H543.648V146.452H541.408V121.14ZM530.432 131.472H536.816V133.348H530.432V131.472ZM536.144 121.784H538.328V145.164H536.144V121.784ZM530.74 124.332H532.98C532.98 130.968 530.32 136.932 523.488 140.992L522.116 139.34C528.08 135.756 530.74 130.716 530.74 124.752V124.332ZM523.236 124.332H531.608V126.236H523.236V124.332ZM553.502 134.16H555.798V141.748H553.502V134.16ZM562.854 134.16H565.178V141.748H562.854V134.16ZM547.902 141.3H570.834V143.232H547.902V141.3ZM559.326 122.736C564.674 122.736 568.51 125.284 568.51 129.26C568.51 133.208 564.674 135.756 559.326 135.756C553.95 135.756 550.114 133.208 550.114 129.26C550.114 125.284 553.95 122.736 559.326 122.736ZM559.326 124.584C555.266 124.584 552.354 126.432 552.354 129.26C552.354 132.06 555.266 133.908 559.326 133.908C563.386 133.908 566.27 132.06 566.27 129.26C566.27 126.432 563.386 124.584 559.326 124.584Z" fill="#BBBBBB"/>
</svg>
